Normalized EMG Linear Envelopes
nRows=126
nColumns=4

endheader
time	 med_gas_r	  soleus_r	 tib_ant_r	
2.875	  0.008050	  0.016173	  0.004658	
2.9375	  0.008283	  0.016338	  0.004794	
3	  0.008505	  0.016458	  0.004897	
3.0625	  0.008840	  0.016831	  0.004950	
3.125	  0.009083	  0.017523	  0.004946	
3.1875	  0.009052	  0.018063	  0.004907	
3.25	  0.008763	  0.018111	  0.004841	
3.3125	  0.008290	  0.017419	  0.004718	
3.375	  0.007966	  0.016229	  0.004579	
3.4375	  0.007940	  0.015117	  0.004524	
3.5	  0.008103	  0.014367	  0.004531	
3.5625	  0.008341	  0.013982	  0.004601	
3.625	  0.008536	  0.014037	  0.004785	
3.6875	  0.008586	  0.014489	  0.004996	
3.75	  0.008532	  0.015318	  0.005021	
3.8125	  0.008410	  0.016185	  0.004826	
3.875	  0.008359	  0.016867	  0.004684	
3.9375	  0.008369	  0.017184	  0.004670	
4	  0.008420	  0.016697	  0.004669	
4.0625	  0.008443	  0.015782	  0.004661	
4.125	  0.008412	  0.014929	  0.004690	
4.1875	  0.008386	  0.014293	  0.004745	
4.25	  0.008533	  0.013857	  0.004779	
4.3125	  0.008743	  0.013697	  0.004757	
4.375	  0.008686	  0.013591	  0.004674	
4.4375	  0.008385	  0.013506	  0.004627	
4.5	  0.008113	  0.013591	  0.004601	
4.5625	  0.007952	  0.014056	  0.004639	
4.625	  0.007873	  0.014594	  0.004761	
4.6875	  0.007940	  0.014773	  0.004926	
4.75	  0.008099	  0.014427	  0.005078	
4.8125	  0.008100	  0.013582	  0.005120	
4.875	  0.007745	  0.012056	  0.004931	
4.9375	  0.006950	  0.009492	  0.004397	
5	  0.005872	  0.006020	  0.003745	
5.0625	  0.005134	  0.004052	  0.003726	
5.125	  0.006218	  0.009098	  0.005906	
5.1875	  0.011607	  0.030023	  0.012457	
5.25	  0.024072	  0.076635	  0.025125	
5.3125	  0.044505	  0.151789	  0.043083	
5.375	  0.068401	  0.237309	  0.060153	
5.4375	  0.087461	  0.300419	  0.070351	
5.5	  0.097496	  0.329065	  0.076150	
5.5625	  0.101722	  0.343063	  0.082436	
5.625	  0.104639	  0.359761	  0.090739	
5.6875	  0.107924	  0.372572	  0.099279	
5.75	  0.109147	  0.366023	  0.102352	
5.8125	  0.107618	  0.344612	  0.099667	
5.875	  0.106008	  0.329424	  0.098105	
5.9375	  0.104793	  0.320346	  0.099620	
6	  0.108902	  0.322829	  0.107429	
6.0625	  0.121598	  0.335177	  0.122024	
6.125	  0.137210	  0.357814	  0.133721	
6.1875	  0.148050	  0.375580	  0.136576	
6.25	  0.154249	  0.383405	  0.135733	
6.3125	  0.163739	  0.394308	  0.136872	
6.375	  0.182927	  0.407330	  0.139110	
6.4375	  0.207359	  0.424034	  0.141928	
6.5	  0.227945	  0.442042	  0.142024	
6.5625	  0.237971	  0.454646	  0.137653	
6.625	  0.235341	  0.471782	  0.131807	
6.6875	  0.236708	  0.500451	  0.127719	
6.75	  0.248093	  0.520176	  0.123591	
6.8125	  0.260448	  0.522243	  0.120441	
6.875	  0.258939	  0.510113	  0.118296	
6.9375	  0.246645	  0.484675	  0.117539	
7	  0.238731	  0.447909	  0.117655	
7.0625	  0.244406	  0.417880	  0.116186	
7.125	  0.263367	  0.414952	  0.113654	
7.1875	  0.285701	  0.438111	  0.113218	
7.25	  0.301595	  0.475687	  0.118351	
7.3125	  0.304931	  0.518565	  0.126918	
7.375	  0.301735	  0.554083	  0.133746	
7.4375	  0.300315	  0.576382	  0.134954	
7.5	  0.303187	  0.580028	  0.133362	
7.5625	  0.310652	  0.553394	  0.130034	
7.625	  0.323374	  0.510050	  0.127520	
7.6875	  0.341064	  0.480107	  0.127787	
7.75	  0.362474	  0.476026	  0.126562	
7.8125	  0.384219	  0.488833	  0.123051	
7.875	  0.402625	  0.494534	  0.118219	
7.9375	  0.417668	  0.484428	  0.114319	
8	  0.427298	  0.466611	  0.111118	
8.0625	  0.425254	  0.460781	  0.110491	
8.125	  0.409282	  0.471417	  0.113767	
8.1875	  0.398881	  0.497755	  0.121699	
8.25	  0.407409	  0.526705	  0.130940	
8.3125	  0.439087	  0.546232	  0.136786	
8.375	  0.485297	  0.544139	  0.137674	
8.4375	  0.522337	  0.540522	  0.135701	
8.5	  0.533367	  0.558313	  0.134803	
8.5625	  0.514110	  0.579824	  0.135213	
8.625	  0.485906	  0.593185	  0.138045	
8.6875	  0.479905	  0.592705	  0.144624	
8.75	  0.491177	  0.579578	  0.150974	
8.8125	  0.499384	  0.577953	  0.151052	
8.875	  0.496626	  0.588712	  0.144639	
8.9375	  0.492591	  0.602559	  0.137704	
9	  0.497729	  0.611408	  0.134975	
9.0625	  0.509379	  0.619870	  0.137711	
9.125	  0.512305	  0.628682	  0.145864	
9.1875	  0.501164	  0.640156	  0.156230	
9.25	  0.474003	  0.640381	  0.164112	
9.3125	  0.453243	  0.627009	  0.171393	
9.375	  0.440407	  0.606335	  0.176600	
9.4375	  0.427861	  0.577414	  0.177577	
9.5	  0.413350	  0.546286	  0.175399	
9.5625	  0.397869	  0.527699	  0.171155	
9.625	  0.399863	  0.520912	  0.164507	
9.6875	  0.416159	  0.521624	  0.159154	
9.75	  0.426200	  0.533161	  0.157159	
9.8125	  0.427991	  0.542970	  0.155458	
9.875	  0.427772	  0.533602	  0.150224	
9.9375	  0.411879	  0.500622	  0.143851	
10	  0.381110	  0.457456	  0.139919	
10.0625	  0.341671	  0.420217	  0.135775	
10.125	  0.299934	  0.384701	  0.127620	
10.1875	  0.259191	  0.345775	  0.114182	
10.25	  0.215020	  0.294891	  0.094430	
10.3125	  0.163126	  0.231223	  0.071333	
10.375	  0.105904	  0.159053	  0.048744	
10.4375	  0.056036	  0.091379	  0.030468	
10.5	  0.023666	  0.044082	  0.018214	
10.5625	  0.008013	  0.019061	  0.010886	
10.625	  0.003450	  0.010201	  0.007260	
10.6875	  0.004212	  0.009597	  0.005923	
